<?xml version="1.0" encoding="UTF-8"?>
<svg width="22px" height="22px" viewBox="0 0 22 22" version="1.1" xmlns="http://www.w3.org/2000/svg" xmlns:xlink="http://www.w3.org/1999/xlink">
    <!-- Generator: Sketch 49.3 (51167) - http://www.bohemiancoding.com/sketch -->
    <title>投注记录</title>
    <desc>Created with Sketch.</desc>
    <defs>
        <path d="M8,4 L6,4 C5.44771525,4 5,4.44771525 5,5 L5,17 C5,17.5522847 5.44771525,18 6,18 L16,18 C16.5522847,18 17,17.5522847 17,17 L17,5 C17,4.44771525 16.5522847,4 16,4 L14,4 L14,5 C14,5.55228475 13.5522847,6 13,6 L9,6 C8.44771525,6 8,5.55228475 8,5 L8,4 Z M6,2 L16,2 C17.6568542,2 19,3.34314575 19,5 L19,17 C19,18.6568542 17.6568542,20 16,20 L6,20 C4.34314575,20 3,18.6568542 3,17 L3,5 C3,3.34314575 4.34314575,2 6,2 Z" id="path-1"></path>
        <path d="M7.5,9 L14.5,9 C14.7761424,9 15,9.22385763 15,9.5 C15,9.77614237 14.7761424,10 14.5,10 L7.5,10 C7.22385763,10 7,9.77614237 7,9.5 C7,9.22385763 7.22385763,9 7.5,9 Z M7.5,12 L10.5,12 C10.7761424,12 11,12.2238576 11,12.5 C11,12.7761424 10.7761424,13 10.5,13 L7.5,13 C7.22385763,13 7,12.7761424 7,12.5 C7,12.2238576 7.22385763,12 7.5,12 Z" id="path-2"></path>
    </defs>
    <g id="雷竞技2.0-copy" stroke="none" stroke-width="1" fill="none" fill-rule="evenodd">
        <g id="icon切图" transform="translate(-24.000000, -1018.000000)">
            <g id="投注记录" transform="translate(24.000000, 1018.000000)">
                <g id="Combined-Shape">
                    <use fill="#00BEFE" xlink:href="#path-1"></use>
                    <use fill-opacity="0.4" fill="#0C121F" xlink:href="#path-1"></use>
                </g>
                <g id="Combined-Shape">
                    <use fill="#1EFFFA" xlink:href="#path-2"></use>
                    <use fill-opacity="0.4" fill="#0C121F" xlink:href="#path-2"></use>
                </g>
            </g>
        </g>
    </g>
</svg>