<?xml version="1.0" encoding="UTF-8"?>
<svg width="34px" height="34px" viewBox="0 0 34 34" version="1.1" xmlns="http://www.w3.org/2000/svg" xmlns:xlink="http://www.w3.org/1999/xlink">
    <!-- Generator: Sketch 49.3 (51167) - http://www.bohemiancoding.com/sketch -->
    <title>支付宝</title>
    <desc>Created with Sketch.</desc>
    <defs>
        <path d="M32,23.4110256 L32,27.3546409 C29.5941097,26.341435 24.1651346,24.045532 20.0679405,22.241643 C18.0196354,24.9965896 15.0789717,27.3610616 11.017986,27.3610616 C6.62124013,27.3610616 5.14655417,24.310329 5.14655417,22.0834518 C5.14655417,19.8565404 6.51129922,17.6464556 10.6881302,17.4569757 C12.5777417,17.3712317 15.7414539,18.0838461 19.0374382,19.0318624 C19.5257566,18.2561223 19.8515551,17.6233575 20.0890182,17.0114632 C20.469177,16.0318497 20.5642084,15.2964456 20.5840987,14.852441 L9.69856309,14.852441 L9.69856309,13.790065 L15.5040237,13.790065 L15.5040237,11.7338533 L8.84093822,11.7338533 L8.84093822,10.7742879 L15.5040237,10.7742879 L15.5040237,7.38153876 L18.5716819,7.38153876 L18.5716819,10.7742879 L25.3007386,10.7742879 L25.3007386,11.7338533 L18.5716819,11.7338533 L18.5716819,13.790065 L24.0472869,13.790065 C24.0472869,13.790065 23.3400102,16.6981308 21.6153266,19.8218932 C25.2980421,20.9904214 29.848562,22.6265664 32,23.4110256 Z M10.3582745,25.476201 C12.7362044,25.5973119 15.4853539,23.9789362 17.4171869,21.3637778 C17.4891614,21.2663133 17.5588599,21.1713849 17.627371,21.0776902 C16.9768955,20.7310472 16.3856951,20.3993802 15.7349227,20.0957806 C13.9956265,19.2842967 12.1631461,18.7249729 10.6551447,18.7249729 C6.21472595,18.7249729 6.1691069,22.0598739 6.1691069,22.3576134 C6.1691069,22.6553528 6.26928408,25.267941 10.3582745,25.476201 Z" id="path-1"></path>
    </defs>
    <g id="雷竞技2.0-copy" stroke="none" stroke-width="1" fill="none" fill-rule="evenodd">
        <g id="icon切图" transform="translate(-24.000000, -1365.000000)">
            <g id="支付宝" transform="translate(24.000000, 1365.000000)">
                <rect id="Rectangle-3" fill="#0A94D7" fill-rule="evenodd" x="2" y="2" width="30" height="30" rx="2"></rect>
                <mask id="mask-2" fill="white">
                    <use xlink:href="#path-1"></use>
                </mask>
                <use id="Combined-Shape" fill="#FFFFFF" fill-rule="evenodd" xlink:href="#path-1"></use>
            </g>
        </g>
    </g>
</svg>