<?xml version="1.0" encoding="UTF-8"?>
<svg width="34px" height="34px" viewBox="0 0 34 34" version="1.1" xmlns="http://www.w3.org/2000/svg" xmlns:xlink="http://www.w3.org/1999/xlink">
    <!-- Generator: Sketch 49.3 (51167) - http://www.bohemiancoding.com/sketch -->
    <title>充值卡</title>
    <desc>Created with Sketch.</desc>
    <defs></defs>
    <g id="雷竞技2.0-copy" stroke="none" stroke-width="1" fill="none" fill-rule="evenodd">
        <g id="icon切图" transform="translate(-198.000000, -1365.000000)">
            <g id="充值卡" transform="translate(198.000000, 1365.000000)">
                <g id="Group-2" transform="translate(1.000000, 5.000000)">
                    <rect id="Rectangle-4" fill="#00B1D3" x="0" y="0" width="32" height="24" rx="2"></rect>
                    <path d="M32,20.1743516 C31.8335155,19.9542679 31.2677497,19.2197582 30.5615652,18.4414236 C29.4181324,17.183397 28.4532881,16.2523376 27.8581346,15.720905 C27.486747,15.3888427 27.150568,15.2242514 26.8315692,15.2111816 C26.4703623,15.1978902 26.1477578,15.3584941 25.896631,15.6048272 C25.8213354,15.6792588 25.6705321,15.82347 25.4671279,16.0168592 C24.5143733,16.9392791 22.5055713,18.8627595 21.4325558,19.8068887 C21.27645,19.951986 21.1494019,20.0693929 21.0618045,20.1489195 C20.6219085,20.5483247 20.1255937,20.7700688 19.6110384,20.7776006 C19.0979678,20.7846893 18.5653839,20.5793379 18.055919,20.1196786 C15.2714661,17.6144799 13.2514228,15.0900087 12.8089816,14.4272132 C12.7752576,14.3769276 12.7150211,14.2588561 12.7850142,14.0721126 C12.8683696,13.8490393 13.0179004,13.5273886 13.0179004,13.5273886 C13.0179004,13.5273886 13.6904704,14.3798074 14.5047235,15.3350127 C15.8288657,16.8896581 16.9614814,17.8185022 17.208154,18.0561959 C17.5661793,18.4033217 17.9157207,18.5528495 18.2345074,18.5659193 C18.5959263,18.5798752 18.9181067,18.4179422 19.1694456,18.1722737 C19.2449533,18.0985067 22.5607174,14.9150059 23.6337328,13.9699907 C23.7898387,13.8257795 23.9168867,13.707708 24.0044842,13.6275168 C24.4443802,13.2285546 24.9404828,13.006146 25.4548261,13.0001649 C25.9683209,12.9930762 26.4877546,13.2145987 27.0101576,13.6565362 C27.7210579,14.2587075 30.2040945,16.6044261 32,18.9821129 L32,20.1743516 Z M32,16.7005251 L32,17.8683315 C31.255278,16.8066871 28.8756046,13.6434989 26.215452,11.5632008 C25.0113585,10.6220293 23.696079,10.7095086 22.5665306,11.7109045 C22.1641132,12.047414 19.1688305,14.8038905 17.7010915,16.3446687 C17.4839841,16.5732578 17.2304463,16.6123817 17.0221832,16.4257739 C16.2173484,15.729896 15.6810025,15.1120461 15.6810025,15.1120461 C16.4285596,14.2284614 20.2396272,10.5336708 21.1653347,9.82768227 C22.6417075,8.70341969 24.122713,8.93047018 25.4055633,9.66063641 C26.500541,10.2819129 29.3128543,12.7322068 32,16.7005251 Z M32,14.4877058 L32,15.47727 C31.1231404,14.1731756 30.2648138,12.9666309 29.0216553,11.5524308 C27.9319065,10.3804722 27.184981,9.68657248 26.3441371,8.98410069 C24.0863038,7.10087844 21.7697189,7.25495626 19.7942727,8.84958481 C18.624293,9.7944929 16.6060992,11.7093659 14.7447871,13.5868735 C14.622651,13.7207299 14.4752454,13.7547985 14.3366841,13.6301735 C13.6162916,12.8945123 13.1578601,12.2984224 13.1578601,12.2984224 C13.7731733,11.5937526 16.1973644,9.25752838 18.0799451,7.67015314 C20.5755226,5.56427634 23.2222962,5.78121616 24.579481,6.5272078 C25.6037396,7.08703122 27.2011956,8.02688396 29.7321505,11.1117374 C30.8706103,12.4996815 31.6938781,13.9032002 32,14.4877058 Z M16.4896145,24 C15.9229396,23.4362759 15.291959,22.7448974 14.5889372,21.8880196 C13.3130361,20.3325149 12.433235,18.7583275 12.2333951,18.3387347 C12.1719059,18.2097137 12.1348439,18.0635486 12.1148388,17.9740911 C11.9931239,17.4292139 12,17.0436897 12,17.0436897 C12.9954822,18.5367719 13.9053962,19.8614895 15.2994324,21.4482054 C16.3819344,22.610823 17.125304,23.3031319 17.9587385,24 L16.4896145,24 Z M24.7100615,24 C25.900016,23.0129392 27.8087045,21.195713 29.5765112,19.4137627 C29.6982262,19.2792468 29.8458424,19.2458376 29.9848249,19.3695834 C30.7045856,20.1052446 31.1636488,20.7015544 31.1636488,20.7015544 C30.7060657,21.225409 29.2488058,22.6508211 27.7578096,24 L24.7100615,24 Z M23.1557741,23.1714373 C21.6789802,24.2972384 20.1986064,24.0699682 18.9155455,23.3391425 C17.7946309,22.7032693 14.875578,20.1516438 12.1321484,16.0176984 C11.9855851,15.7919667 12.0399146,15.5242537 12.042231,15.507769 C12.0822411,15.2103834 12.1483631,14.8795886 12.1483631,14.8795886 C12.5937387,15.5504096 15.180076,19.1489291 18.1052357,21.4365781 C19.3101715,22.3786288 20.625451,22.2902704 21.7545782,21.2890942 C22.156785,20.9532441 25.1522783,18.1961083 26.6200173,16.6557696 C26.8373353,16.4271806 27.0906625,16.3873973 27.2989256,16.5748843 C28.1037604,17.2692236 28.6401064,17.8877328 28.6401064,17.8877328 C27.8927597,18.7710977 24.0810604,22.4667675 23.1557741,23.1714373 Z" id="Combined-Shape" fill="#04CAF0"></path>
                    <path d="M6,13 L7,13 L7,14 L6,14 L6,13 Z M12,13 L13,13 L13,14 L12,14 L12,13 Z M8,13 L9,13 L10,14 L8,14 L8,13 Z M10,13 L11,13 L11,14 L10,13 Z" id="Combined-Shape" fill="#FFFFFF"></path>
                    <text id="50" font-family="DINAlternate-Bold, DIN Alternate" font-size="12" font-weight="bold" fill="#FFFFFF">
                        <tspan x="2" y="12">50</tspan>
                    </text>
                </g>
            </g>
        </g>
    </g>
</svg>