<?xml version="1.0" encoding="UTF-8"?>
<svg width="22px" height="22px" viewBox="0 0 22 22" version="1.1" xmlns="http://www.w3.org/2000/svg" xmlns:xlink="http://www.w3.org/1999/xlink">
    <!-- Generator: Sketch 49.3 (51167) - http://www.bohemiancoding.com/sketch -->
    <title>钱包</title>
    <desc>Created with Sketch.</desc>
    <defs></defs>
    <g id="雷竞技2.0-copy" stroke="none" stroke-width="1" fill="none" fill-rule="evenodd">
        <g id="icon切图" transform="translate(-24.000000, -972.000000)">
            <g id="钱包" transform="translate(24.000000, 972.000000)">
                <path d="M4,6 L18,6 C19.1045695,6 20,6.8954305 20,8 L20,18 C20,19.1045695 19.1045695,20 18,20 L4,20 C2.8954305,20 2,19.1045695 2,18 L2,8 C2,6.8954305 2.8954305,6 4,6 Z M5,8 C4.44771525,8 4,8.44771525 4,9 L4,17 C4,17.5522847 4.44771525,18 5,18 L17,18 C17.5522847,18 18,17.5522847 18,17 L18,9 C18,8.44771525 17.5522847,8 17,8 L5,8 Z" id="Combined-Shape" fill="#00BEFE"></path>
                <path d="M12.0002988,5.04278185 C12.0002861,5.04186892 12.0002737,5.04095589 12.0002618,5.04004277 L4.0609436,7.97705078 L3.2555542,6.14807129 L13.7925569,2.25289032 C14.1619941,2.09027611 14.5704545,2 15,2 C16.6568542,2 18,3.34314575 18,5 L16,5 C16,4.44771525 15.5522847,4 15,4 C14.8694673,4 14.7447761,4.02501003 14.6304568,4.07049957 L12.0002988,5.04278185 Z" id="Combined-Shape" fill="#00BEFE"></path>
                <rect id="Rectangle-3" fill="#1EFFFA" x="12" y="12" width="5" height="2" rx="1"></rect>
            </g>
        </g>
    </g>
</svg>